<?xml version="1.0" encoding="utf-8"?>
<!-- Generator: Adobe Illustrator 25.4.1, SVG Export Plug-In . SVG Version: 6.00 Build 0)  -->
<svg version="1.1" id="Layer_1" xmlns="http://www.w3.org/2000/svg" xmlns:xlink="http://www.w3.org/1999/xlink" x="0px" y="0px"
	 viewBox="0 0 120 120" style="enable-background:new 0 0 120 120;" xml:space="preserve">
<style type="text/css">
	.st0{fill-rule:evenodd;clip-rule:evenodd;fill:#FFFFFF;}
</style>
<path class="st0" d="M60,1.48c-33.13,0-60,26.86-60,60c0,26.51,17.19,49,41.03,56.93c3,0.55,4.1-1.3,4.1-2.89
	c0-1.42-0.05-5.2-0.08-10.2c-16.69,3.63-20.21-8.04-20.21-8.04c-2.73-6.93-6.66-8.78-6.66-8.78c-5.45-3.72,0.41-3.65,0.41-3.65
	c6.02,0.42,9.19,6.18,9.19,6.18c5.35,9.17,14.04,6.52,17.46,4.99c0.55-3.88,2.1-6.52,3.81-8.02c-13.32-1.51-27.33-6.66-27.33-29.65
	c0-6.55,2.34-11.91,6.18-16.1c-0.62-1.52-2.68-7.62,0.59-15.88c0,0,5.04-1.61,16.5,6.15c4.79-1.33,9.92-2,15.02-2.02
	c5.1,0.02,10.23,0.69,15.02,2.02c11.45-7.76,16.48-6.15,16.48-6.15c3.27,8.26,1.21,14.36,0.6,15.88c3.85,4.19,6.17,9.55,6.17,16.1
	c0,23.05-14.03,28.12-27.39,29.61c2.15,1.85,4.07,5.51,4.07,11.11c0,8.02-0.07,14.49-0.07,16.46c0,1.6,1.08,3.47,4.13,2.89
	c23.82-7.95,41-30.42,41-56.92C120,28.34,93.13,1.48,60,1.48z"/>
</svg>
